<svg width="20" height="20" viewBox="0 0 20 20" fill="none" xmlns="http://www.w3.org/2000/svg">
<path d="M18.3337 18.9584H4.16699C2.44199 18.9584 1.04199 17.5584 1.04199 15.8334V1.66675C1.04199 1.32508 1.32533 1.04175 1.66699 1.04175C2.00866 1.04175 2.29199 1.32508 2.29199 1.66675V15.8334C2.29199 16.8667 3.13366 17.7084 4.16699 17.7084H18.3337C18.6753 17.7084 18.9587 17.9917 18.9587 18.3334C18.9587 18.6751 18.6753 18.9584 18.3337 18.9584Z" fill="#FF4D4D"/>
<path opacity="0.4" d="M4.16684 14.7917C4.02518 14.7917 3.87518 14.7417 3.75851 14.6417C3.50018 14.4167 3.46684 14.025 3.69184 13.7584L7.51684 9.29168C7.93351 8.80834 8.53351 8.51668 9.16684 8.49168C9.80018 8.47502 10.4252 8.70834 10.8752 9.15834L11.6668 9.95002C11.8752 10.1583 12.1418 10.2583 12.4418 10.2583C12.7335 10.25 13.0002 10.1167 13.1918 9.89168L17.0168 5.42502C17.2418 5.16669 17.6335 5.13334 17.9002 5.35834C18.1585 5.58334 18.1918 5.97501 17.9668 6.24167L14.1418 10.7084C13.7252 11.1917 13.1252 11.4833 12.4918 11.5083C11.8502 11.525 11.2335 11.2917 10.7835 10.8417L10.0002 10.05C9.79184 9.84168 9.51684 9.73335 9.22518 9.74168C8.93351 9.75002 8.66684 9.88335 8.47518 10.1084L4.65018 14.575C4.51684 14.7167 4.34184 14.7917 4.16684 14.7917Z" fill="#FF4D4D"/>
</svg>
